<svg id="visual" viewBox="0 0 1200 300" width="1200" height="300" xmlns="http://www.w3.org/2000/svg" xmlns:xlink="http://www.w3.org/1999/xlink" version="1.1"><rect x="0" y="0" width="1200" height="300" fill="#090C22"></rect><path d="M0 170L18.2 169.2C36.3 168.3 72.7 166.7 109 167.2C145.3 167.7 181.7 170.3 218 164.5C254.3 158.7 290.7 144.3 327 142.7C363.3 141 399.7 152 436 155.3C472.3 158.7 508.7 154.3 545.2 155.2C581.7 156 618.3 162 654.8 157.5C691.3 153 727.7 138 764 128.8C800.3 119.7 836.7 116.3 873 112.3C909.3 108.3 945.7 103.7 982 112.3C1018.3 121 1054.7 143 1091 155.2C1127.3 167.3 1163.7 169.7 1181.8 170.8L1200 172L1200 301L1181.8 301C1163.7 301 1127.3 301 1091 301C1054.7 301 1018.3 301 982 301C945.7 301 909.3 301 873 301C836.7 301 800.3 301 764 301C727.7 301 691.3 301 654.8 301C618.3 301 581.7 301 545.2 301C508.7 301 472.3 301 436 301C399.7 301 363.3 301 327 301C290.7 301 254.3 301 218 301C181.7 301 145.3 301 109 301C72.7 301 36.3 301 18.2 301L0 301Z" fill="#090c22"></path><path d="M0 138L18.2 138.2C36.3 138.3 72.7 138.7 109 144.7C145.3 150.7 181.7 162.3 218 163.5C254.3 164.7 290.7 155.3 327 159.2C363.3 163 399.7 180 436 181.2C472.3 182.3 508.7 167.7 545.2 160.2C581.7 152.7 618.3 152.3 654.8 157C691.3 161.7 727.7 171.3 764 175.5C800.3 179.7 836.7 178.3 873 177.7C909.3 177 945.7 177 982 177C1018.3 177 1054.7 177 1091 169.2C1127.3 161.3 1163.7 145.7 1181.8 137.8L1200 130L1200 301L1181.8 301C1163.7 301 1127.3 301 1091 301C1054.7 301 1018.3 301 982 301C945.7 301 909.3 301 873 301C836.7 301 800.3 301 764 301C727.7 301 691.3 301 654.8 301C618.3 301 581.7 301 545.2 301C508.7 301 472.3 301 436 301C399.7 301 363.3 301 327 301C290.7 301 254.3 301 218 301C181.7 301 145.3 301 109 301C72.7 301 36.3 301 18.2 301L0 301Z" fill="#311f45"></path><path d="M0 203L18.2 202C36.3 201 72.7 199 109 202.5C145.3 206 181.7 215 218 214.7C254.3 214.3 290.7 204.7 327 198.3C363.3 192 399.7 189 436 191C472.3 193 508.7 200 545.2 198.8C581.7 197.7 618.3 188.3 654.8 187.5C691.3 186.7 727.7 194.3 764 191.7C800.3 189 836.7 176 873 170.5C909.3 165 945.7 167 982 176.5C1018.3 186 1054.7 203 1091 205.2C1127.3 207.3 1163.7 194.7 1181.8 188.3L1200 182L1200 301L1181.8 301C1163.7 301 1127.3 301 1091 301C1054.7 301 1018.3 301 982 301C945.7 301 909.3 301 873 301C836.7 301 800.3 301 764 301C727.7 301 691.3 301 654.8 301C618.3 301 581.7 301 545.2 301C508.7 301 472.3 301 436 301C399.7 301 363.3 301 327 301C290.7 301 254.3 301 218 301C181.7 301 145.3 301 109 301C72.7 301 36.3 301 18.2 301L0 301Z" fill="#682a5f"></path><path d="M0 241L18.2 235.5C36.3 230 72.7 219 109 216C145.3 213 181.7 218 218 222.8C254.3 227.7 290.7 232.3 327 230.5C363.3 228.7 399.7 220.3 436 216.3C472.3 212.3 508.7 212.7 545.2 211.3C581.7 210 618.3 207 654.8 210.5C691.3 214 727.7 224 764 229.3C800.3 234.7 836.7 235.3 873 232.8C909.3 230.3 945.7 224.7 982 220.8C1018.3 217 1054.7 215 1091 211.8C1127.3 208.7 1163.7 204.3 1181.8 202.2L1200 200L1200 301L1181.8 301C1163.7 301 1127.3 301 1091 301C1054.7 301 1018.3 301 982 301C945.7 301 909.3 301 873 301C836.7 301 800.3 301 764 301C727.7 301 691.3 301 654.8 301C618.3 301 581.7 301 545.2 301C508.7 301 472.3 301 436 301C399.7 301 363.3 301 327 301C290.7 301 254.3 301 218 301C181.7 301 145.3 301 109 301C72.7 301 36.3 301 18.2 301L0 301Z" fill="#a53268"></path><path d="M0 276L18.2 274.7C36.3 273.3 72.7 270.7 109 267.3C145.3 264 181.7 260 218 260.2C254.3 260.3 290.7 264.7 327 265.3C363.3 266 399.7 263 436 262.5C472.3 262 508.7 264 545.2 263.2C581.7 262.3 618.3 258.7 654.8 260C691.3 261.3 727.7 267.7 764 264.8C800.3 262 836.7 250 873 250.3C909.3 250.7 945.7 263.3 982 268.3C1018.3 273.3 1054.7 270.7 1091 269.5C1127.3 268.3 1163.7 268.7 1181.8 268.8L1200 269L1200 301L1181.8 301C1163.7 301 1127.3 301 1091 301C1054.7 301 1018.3 301 982 301C945.7 301 909.3 301 873 301C836.7 301 800.3 301 764 301C727.7 301 691.3 301 654.8 301C618.3 301 581.7 301 545.2 301C508.7 301 472.3 301 436 301C399.7 301 363.3 301 327 301C290.7 301 254.3 301 218 301C181.7 301 145.3 301 109 301C72.7 301 36.3 301 18.2 301L0 301Z" fill="#dd4261"></path></svg>