<svg id="visual" viewBox="0 0 1200 300" width="1200" height="300" xmlns="http://www.w3.org/2000/svg" xmlns:xlink="http://www.w3.org/1999/xlink" version="1.1"><rect x="0" y="0" width="1200" height="300" fill="#090C22"></rect><path d="M0 95L18.2 99C36.3 103 72.7 111 109 121.2C145.3 131.3 181.7 143.7 218 145.8C254.3 148 290.7 140 327 139.7C363.3 139.3 399.7 146.7 436 141.7C472.3 136.7 508.7 119.3 545.2 112C581.7 104.7 618.3 107.3 654.8 117C691.3 126.7 727.7 143.3 764 146.7C800.3 150 836.7 140 873 138.5C909.3 137 945.7 144 982 137.2C1018.3 130.3 1054.7 109.7 1091 109.2C1127.3 108.7 1163.7 128.3 1181.8 138.2L1200 148L1200 301L1181.8 301C1163.7 301 1127.3 301 1091 301C1054.7 301 1018.3 301 982 301C945.7 301 909.3 301 873 301C836.7 301 800.3 301 764 301C727.7 301 691.3 301 654.8 301C618.3 301 581.7 301 545.2 301C508.7 301 472.3 301 436 301C399.7 301 363.3 301 327 301C290.7 301 254.3 301 218 301C181.7 301 145.3 301 109 301C72.7 301 36.3 301 18.2 301L0 301Z" fill="#4a7c6d"></path><path d="M0 129L18.2 133.3C36.3 137.7 72.7 146.3 109 146.2C145.3 146 181.7 137 218 133.2C254.3 129.3 290.7 130.7 327 131.7C363.3 132.7 399.7 133.3 436 142.8C472.3 152.3 508.7 170.7 545.2 170.5C581.7 170.3 618.3 151.7 654.8 144.5C691.3 137.3 727.7 141.7 764 149.2C800.3 156.7 836.7 167.3 873 166C909.3 164.7 945.7 151.3 982 143.3C1018.3 135.3 1054.7 132.7 1091 132C1127.3 131.3 1163.7 132.7 1181.8 133.3L1200 134L1200 301L1181.8 301C1163.7 301 1127.3 301 1091 301C1054.7 301 1018.3 301 982 301C945.7 301 909.3 301 873 301C836.7 301 800.3 301 764 301C727.7 301 691.3 301 654.8 301C618.3 301 581.7 301 545.2 301C508.7 301 472.3 301 436 301C399.7 301 363.3 301 327 301C290.7 301 254.3 301 218 301C181.7 301 145.3 301 109 301C72.7 301 36.3 301 18.2 301L0 301Z" fill="#70937a"></path><path d="M0 176L18.2 180.2C36.3 184.3 72.7 192.7 109 197.7C145.3 202.7 181.7 204.3 218 203.8C254.3 203.3 290.7 200.7 327 195.3C363.3 190 399.7 182 436 186.5C472.3 191 508.7 208 545.2 214.5C581.7 221 618.3 217 654.8 213.7C691.3 210.3 727.7 207.7 764 208.7C800.3 209.7 836.7 214.3 873 212.2C909.3 210 945.7 201 982 201.7C1018.3 202.3 1054.7 212.7 1091 218.3C1127.3 224 1163.7 225 1181.8 225.5L1200 226L1200 301L1181.8 301C1163.7 301 1127.3 301 1091 301C1054.7 301 1018.3 301 982 301C945.7 301 909.3 301 873 301C836.7 301 800.3 301 764 301C727.7 301 691.3 301 654.8 301C618.3 301 581.7 301 545.2 301C508.7 301 472.3 301 436 301C399.7 301 363.3 301 327 301C290.7 301 254.3 301 218 301C181.7 301 145.3 301 109 301C72.7 301 36.3 301 18.2 301L0 301Z" fill="#96a98a"></path><path d="M0 204L18.2 210.2C36.3 216.3 72.7 228.7 109 232.5C145.3 236.3 181.7 231.7 218 232.5C254.3 233.3 290.7 239.7 327 235.5C363.3 231.3 399.7 216.7 436 213C472.3 209.3 508.7 216.7 545.2 222.7C581.7 228.7 618.3 233.3 654.8 237.2C691.3 241 727.7 244 764 244.5C800.3 245 836.7 243 873 236.5C909.3 230 945.7 219 982 212.7C1018.3 206.3 1054.7 204.7 1091 204.5C1127.3 204.3 1163.7 205.7 1181.8 206.3L1200 207L1200 301L1181.8 301C1163.7 301 1127.3 301 1091 301C1054.7 301 1018.3 301 982 301C945.7 301 909.3 301 873 301C836.7 301 800.3 301 764 301C727.7 301 691.3 301 654.8 301C618.3 301 581.7 301 545.2 301C508.7 301 472.3 301 436 301C399.7 301 363.3 301 327 301C290.7 301 254.3 301 218 301C181.7 301 145.3 301 109 301C72.7 301 36.3 301 18.2 301L0 301Z" fill="#bdbf9f"></path><path d="M0 256L18.2 252.7C36.3 249.3 72.7 242.7 109 241.5C145.3 240.3 181.7 244.7 218 247C254.3 249.3 290.7 249.7 327 254.3C363.3 259 399.7 268 436 270.2C472.3 272.3 508.7 267.7 545.2 263.7C581.7 259.7 618.3 256.3 654.8 259.2C691.3 262 727.7 271 764 269C800.3 267 836.7 254 873 252.7C909.3 251.3 945.7 261.7 982 267.8C1018.3 274 1054.7 276 1091 275.8C1127.3 275.7 1163.7 273.3 1181.8 272.2L1200 271L1200 301L1181.8 301C1163.7 301 1127.3 301 1091 301C1054.7 301 1018.3 301 982 301C945.7 301 909.3 301 873 301C836.7 301 800.3 301 764 301C727.7 301 691.3 301 654.8 301C618.3 301 581.7 301 545.2 301C508.7 301 472.3 301 436 301C399.7 301 363.3 301 327 301C290.7 301 254.3 301 218 301C181.7 301 145.3 301 109 301C72.7 301 36.3 301 18.2 301L0 301Z" fill="#e2d6b9"></path></svg>