<svg id="visual" viewBox="0 0 1200 150" width="1200" height="150" xmlns="http://www.w3.org/2000/svg" xmlns:xlink="http://www.w3.org/1999/xlink" version="1.1"><rect x="0" y="0" width="1200" height="150" fill="#090C22"></rect><path d="M0 49L15.3 45.5C30.7 42 61.3 35 92.2 40.7C123 46.3 154 64.7 184.8 66.3C215.7 68 246.3 53 277 45C307.7 37 338.3 36 369.2 34.7C400 33.3 431 31.7 461.8 32.8C492.7 34 523.3 38 554 38.7C584.7 39.3 615.3 36.7 646 35.2C676.7 33.7 707.3 33.3 738.2 30.7C769 28 800 23 830.8 26C861.7 29 892.3 40 923 41.3C953.7 42.7 984.3 34.3 1015.2 39C1046 43.7 1077 61.3 1107.8 65C1138.7 68.7 1169.3 58.3 1184.7 53.2L1200 48L1200 151L1184.7 151C1169.3 151 1138.7 151 1107.8 151C1077 151 1046 151 1015.2 151C984.3 151 953.7 151 923 151C892.3 151 861.7 151 830.8 151C800 151 769 151 738.2 151C707.3 151 676.7 151 646 151C615.3 151 584.7 151 554 151C523.3 151 492.7 151 461.8 151C431 151 400 151 369.2 151C338.3 151 307.7 151 277 151C246.3 151 215.7 151 184.8 151C154 151 123 151 92.2 151C61.3 151 30.7 151 15.3 151L0 151Z" fill="#4a7c6d"></path><path d="M0 83L15.3 80.2C30.7 77.3 61.3 71.7 92.2 69C123 66.3 154 66.7 184.8 71.5C215.7 76.3 246.3 85.7 277 90.2C307.7 94.7 338.3 94.3 369.2 86.8C400 79.3 431 64.7 461.8 55.3C492.7 46 523.3 42 554 45.3C584.7 48.7 615.3 59.3 646 60.7C676.7 62 707.3 54 738.2 53.7C769 53.3 800 60.7 830.8 66.3C861.7 72 892.3 76 923 78.8C953.7 81.7 984.3 83.3 1015.2 80.8C1046 78.3 1077 71.7 1107.8 71.8C1138.7 72 1169.3 79 1184.7 82.5L1200 86L1200 151L1184.7 151C1169.3 151 1138.7 151 1107.8 151C1077 151 1046 151 1015.2 151C984.3 151 953.7 151 923 151C892.3 151 861.7 151 830.8 151C800 151 769 151 738.2 151C707.3 151 676.7 151 646 151C615.3 151 584.7 151 554 151C523.3 151 492.7 151 461.8 151C431 151 400 151 369.2 151C338.3 151 307.7 151 277 151C246.3 151 215.7 151 184.8 151C154 151 123 151 92.2 151C61.3 151 30.7 151 15.3 151L0 151Z" fill="#70937a"></path><path d="M0 89L15.3 86.3C30.7 83.7 61.3 78.3 92.2 80.5C123 82.7 154 92.3 184.8 92.2C215.7 92 246.3 82 277 79.2C307.7 76.3 338.3 80.7 369.2 80.7C400 80.7 431 76.3 461.8 77.7C492.7 79 523.3 86 554 89C584.7 92 615.3 91 646 89.5C676.7 88 707.3 86 738.2 84C769 82 800 80 830.8 81.5C861.7 83 892.3 88 923 87.7C953.7 87.3 984.3 81.7 1015.2 84.3C1046 87 1077 98 1107.8 98.8C1138.7 99.7 1169.3 90.3 1184.7 85.7L1200 81L1200 151L1184.7 151C1169.3 151 1138.7 151 1107.8 151C1077 151 1046 151 1015.2 151C984.3 151 953.7 151 923 151C892.3 151 861.7 151 830.8 151C800 151 769 151 738.2 151C707.3 151 676.7 151 646 151C615.3 151 584.7 151 554 151C523.3 151 492.7 151 461.8 151C431 151 400 151 369.2 151C338.3 151 307.7 151 277 151C246.3 151 215.7 151 184.8 151C154 151 123 151 92.2 151C61.3 151 30.7 151 15.3 151L0 151Z" fill="#96a98a"></path><path d="M0 104L15.3 105.5C30.7 107 61.3 110 92.2 111.7C123 113.3 154 113.7 184.8 110.5C215.7 107.3 246.3 100.7 277 100.2C307.7 99.7 338.3 105.3 369.2 109.2C400 113 431 115 461.8 116.7C492.7 118.3 523.3 119.7 554 117.5C584.7 115.3 615.3 109.7 646 108.7C676.7 107.7 707.3 111.3 738.2 112.7C769 114 800 113 830.8 112.7C861.7 112.3 892.3 112.7 923 114.8C953.7 117 984.3 121 1015.2 121.7C1046 122.3 1077 119.7 1107.8 118.8C1138.7 118 1169.3 119 1184.7 119.5L1200 120L1200 151L1184.7 151C1169.3 151 1138.7 151 1107.8 151C1077 151 1046 151 1015.2 151C984.3 151 953.7 151 923 151C892.3 151 861.7 151 830.8 151C800 151 769 151 738.2 151C707.3 151 676.7 151 646 151C615.3 151 584.7 151 554 151C523.3 151 492.7 151 461.8 151C431 151 400 151 369.2 151C338.3 151 307.7 151 277 151C246.3 151 215.7 151 184.8 151C154 151 123 151 92.2 151C61.3 151 30.7 151 15.3 151L0 151Z" fill="#bdbf9f"></path><path d="M0 120L15.3 122.7C30.7 125.3 61.3 130.7 92.2 131.8C123 133 154 130 184.8 126.7C215.7 123.3 246.3 119.7 277 119.3C307.7 119 338.3 122 369.2 121.3C400 120.7 431 116.3 461.8 115.8C492.7 115.3 523.3 118.7 554 122.2C584.7 125.7 615.3 129.3 646 129.5C676.7 129.7 707.3 126.3 738.2 123.2C769 120 800 117 830.8 119C861.7 121 892.3 128 923 130.3C953.7 132.7 984.3 130.3 1015.2 131C1046 131.7 1077 135.3 1107.8 136.2C1138.7 137 1169.3 135 1184.7 134L1200 133L1200 151L1184.7 151C1169.3 151 1138.7 151 1107.8 151C1077 151 1046 151 1015.2 151C984.3 151 953.7 151 923 151C892.3 151 861.7 151 830.8 151C800 151 769 151 738.2 151C707.3 151 676.7 151 646 151C615.3 151 584.7 151 554 151C523.3 151 492.7 151 461.8 151C431 151 400 151 369.2 151C338.3 151 307.7 151 277 151C246.3 151 215.7 151 184.8 151C154 151 123 151 92.2 151C61.3 151 30.7 151 15.3 151L0 151Z" fill="#e2d6b9"></path></svg>