<svg id="visual" viewBox="0 0 1200 150" width="1200" height="150" xmlns="http://www.w3.org/2000/svg" xmlns:xlink="http://www.w3.org/1999/xlink" version="1.1"><rect x="0" y="0" width="1200" height="150" fill="#090C22"></rect><path d="M0 42L15.3 40.8C30.7 39.7 61.3 37.3 92.2 38.2C123 39 154 43 184.8 47C215.7 51 246.3 55 277 60.5C307.7 66 338.3 73 369.2 70.8C400 68.7 431 57.3 461.8 49.2C492.7 41 523.3 36 554 41C584.7 46 615.3 61 646 62C676.7 63 707.3 50 738.2 47.2C769 44.3 800 51.7 830.8 58C861.7 64.3 892.3 69.7 923 67.3C953.7 65 984.3 55 1015.2 48.7C1046 42.3 1077 39.7 1107.8 36.2C1138.7 32.7 1169.3 28.3 1184.7 26.2L1200 24L1200 151L1184.7 151C1169.3 151 1138.7 151 1107.8 151C1077 151 1046 151 1015.2 151C984.3 151 953.7 151 923 151C892.3 151 861.7 151 830.8 151C800 151 769 151 738.2 151C707.3 151 676.7 151 646 151C615.3 151 584.7 151 554 151C523.3 151 492.7 151 461.8 151C431 151 400 151 369.2 151C338.3 151 307.7 151 277 151C246.3 151 215.7 151 184.8 151C154 151 123 151 92.2 151C61.3 151 30.7 151 15.3 151L0 151Z" fill="#4a7c6d"></path><path d="M0 92L15.3 90.7C30.7 89.3 61.3 86.7 92.2 84C123 81.3 154 78.7 184.8 79.8C215.7 81 246.3 86 277 82.7C307.7 79.3 338.3 67.7 369.2 64.3C400 61 431 66 461.8 62.8C492.7 59.7 523.3 48.3 554 44.8C584.7 41.3 615.3 45.7 646 50.7C676.7 55.7 707.3 61.3 738.2 61.5C769 61.7 800 56.3 830.8 56.2C861.7 56 892.3 61 923 62.5C953.7 64 984.3 62 1015.2 67C1046 72 1077 84 1107.8 84.7C1138.7 85.3 1169.3 74.7 1184.7 69.3L1200 64L1200 151L1184.7 151C1169.3 151 1138.7 151 1107.8 151C1077 151 1046 151 1015.2 151C984.3 151 953.7 151 923 151C892.3 151 861.7 151 830.8 151C800 151 769 151 738.2 151C707.3 151 676.7 151 646 151C615.3 151 584.7 151 554 151C523.3 151 492.7 151 461.8 151C431 151 400 151 369.2 151C338.3 151 307.7 151 277 151C246.3 151 215.7 151 184.8 151C154 151 123 151 92.2 151C61.3 151 30.7 151 15.3 151L0 151Z" fill="#70937a"></path><path d="M0 69L15.3 71.5C30.7 74 61.3 79 92.2 81.5C123 84 154 84 184.8 87.5C215.7 91 246.3 98 277 98.8C307.7 99.7 338.3 94.3 369.2 86.8C400 79.3 431 69.7 461.8 73C492.7 76.3 523.3 92.7 554 100.3C584.7 108 615.3 107 646 103.7C676.7 100.3 707.3 94.7 738.2 87.7C769 80.7 800 72.3 830.8 75.8C861.7 79.3 892.3 94.7 923 102C953.7 109.3 984.3 108.7 1015.2 102.2C1046 95.7 1077 83.3 1107.8 80C1138.7 76.7 1169.3 82.3 1184.7 85.2L1200 88L1200 151L1184.7 151C1169.3 151 1138.7 151 1107.8 151C1077 151 1046 151 1015.2 151C984.3 151 953.7 151 923 151C892.3 151 861.7 151 830.8 151C800 151 769 151 738.2 151C707.3 151 676.7 151 646 151C615.3 151 584.7 151 554 151C523.3 151 492.7 151 461.8 151C431 151 400 151 369.2 151C338.3 151 307.7 151 277 151C246.3 151 215.7 151 184.8 151C154 151 123 151 92.2 151C61.3 151 30.7 151 15.3 151L0 151Z" fill="#96a98a"></path><path d="M0 85L15.3 89.3C30.7 93.7 61.3 102.3 92.2 103.7C123 105 154 99 184.8 94.8C215.7 90.7 246.3 88.3 277 93.2C307.7 98 338.3 110 369.2 114.8C400 119.7 431 117.3 461.8 114.7C492.7 112 523.3 109 554 108.7C584.7 108.3 615.3 110.7 646 112.8C676.7 115 707.3 117 738.2 117.2C769 117.3 800 115.7 830.8 112.2C861.7 108.7 892.3 103.3 923 99.2C953.7 95 984.3 92 1015.2 90.5C1046 89 1077 89 1107.8 92.7C1138.7 96.3 1169.3 103.7 1184.7 107.3L1200 111L1200 151L1184.7 151C1169.3 151 1138.7 151 1107.8 151C1077 151 1046 151 1015.2 151C984.3 151 953.7 151 923 151C892.3 151 861.7 151 830.8 151C800 151 769 151 738.2 151C707.3 151 676.7 151 646 151C615.3 151 584.7 151 554 151C523.3 151 492.7 151 461.8 151C431 151 400 151 369.2 151C338.3 151 307.7 151 277 151C246.3 151 215.7 151 184.8 151C154 151 123 151 92.2 151C61.3 151 30.7 151 15.3 151L0 151Z" fill="#bdbf9f"></path><path d="M0 115L15.3 118.5C30.7 122 61.3 129 92.2 131.5C123 134 154 132 184.8 132.3C215.7 132.7 246.3 135.3 277 135.8C307.7 136.3 338.3 134.7 369.2 132C400 129.3 431 125.7 461.8 123.8C492.7 122 523.3 122 554 120.2C584.7 118.3 615.3 114.7 646 112.2C676.7 109.7 707.3 108.3 738.2 109.2C769 110 800 113 830.8 113.2C861.7 113.3 892.3 110.7 923 110.3C953.7 110 984.3 112 1015.2 113C1046 114 1077 114 1107.8 116.5C1138.7 119 1169.3 124 1184.7 126.5L1200 129L1200 151L1184.7 151C1169.3 151 1138.7 151 1107.8 151C1077 151 1046 151 1015.2 151C984.3 151 953.7 151 923 151C892.3 151 861.7 151 830.8 151C800 151 769 151 738.2 151C707.3 151 676.7 151 646 151C615.3 151 584.7 151 554 151C523.3 151 492.7 151 461.8 151C431 151 400 151 369.2 151C338.3 151 307.7 151 277 151C246.3 151 215.7 151 184.8 151C154 151 123 151 92.2 151C61.3 151 30.7 151 15.3 151L0 151Z" fill="#e2d6b9"></path></svg>