<svg id="visual" viewBox="0 0 1200 150" width="1200" height="150" xmlns="http://www.w3.org/2000/svg" xmlns:xlink="http://www.w3.org/1999/xlink" version="1.1"><rect x="0" y="0" width="1200" height="150" fill="#090C22"></rect><path d="M0 67L15.3 62.5C30.7 58 61.3 49 92.2 48.7C123 48.3 154 56.7 184.8 54.7C215.7 52.7 246.3 40.3 277 36.7C307.7 33 338.3 38 369.2 45.5C400 53 431 63 461.8 65.5C492.7 68 523.3 63 554 57C584.7 51 615.3 44 646 37.7C676.7 31.3 707.3 25.7 738.2 29.3C769 33 800 46 830.8 53.8C861.7 61.7 892.3 64.3 923 62.5C953.7 60.7 984.3 54.3 1015.2 55.8C1046 57.3 1077 66.7 1107.8 62.7C1138.7 58.7 1169.3 41.3 1184.7 32.7L1200 24L1200 151L1184.7 151C1169.3 151 1138.7 151 1107.8 151C1077 151 1046 151 1015.2 151C984.3 151 953.7 151 923 151C892.3 151 861.7 151 830.8 151C800 151 769 151 738.2 151C707.3 151 676.7 151 646 151C615.3 151 584.7 151 554 151C523.3 151 492.7 151 461.8 151C431 151 400 151 369.2 151C338.3 151 307.7 151 277 151C246.3 151 215.7 151 184.8 151C154 151 123 151 92.2 151C61.3 151 30.7 151 15.3 151L0 151Z" fill="#4a7c6d"></path><path d="M0 86L15.3 80.8C30.7 75.7 61.3 65.3 92.2 59.5C123 53.7 154 52.3 184.8 51.3C215.7 50.3 246.3 49.7 277 48.5C307.7 47.3 338.3 45.7 369.2 48.3C400 51 431 58 461.8 60.2C492.7 62.3 523.3 59.7 554 60.7C584.7 61.7 615.3 66.3 646 72C676.7 77.7 707.3 84.3 738.2 84.5C769 84.7 800 78.3 830.8 77.2C861.7 76 892.3 80 923 76C953.7 72 984.3 60 1015.2 55.7C1046 51.3 1077 54.7 1107.8 53.7C1138.7 52.7 1169.3 47.3 1184.7 44.7L1200 42L1200 151L1184.7 151C1169.3 151 1138.7 151 1107.8 151C1077 151 1046 151 1015.2 151C984.3 151 953.7 151 923 151C892.3 151 861.7 151 830.8 151C800 151 769 151 738.2 151C707.3 151 676.7 151 646 151C615.3 151 584.7 151 554 151C523.3 151 492.7 151 461.8 151C431 151 400 151 369.2 151C338.3 151 307.7 151 277 151C246.3 151 215.7 151 184.8 151C154 151 123 151 92.2 151C61.3 151 30.7 151 15.3 151L0 151Z" fill="#70937a"></path><path d="M0 94L15.3 90C30.7 86 61.3 78 92.2 80.7C123 83.3 154 96.7 184.8 99.7C215.7 102.7 246.3 95.3 277 93C307.7 90.7 338.3 93.3 369.2 92.5C400 91.7 431 87.3 461.8 82.7C492.7 78 523.3 73 554 71.5C584.7 70 615.3 72 646 76C676.7 80 707.3 86 738.2 91.2C769 96.3 800 100.7 830.8 100.2C861.7 99.7 892.3 94.3 923 87.5C953.7 80.7 984.3 72.3 1015.2 73.2C1046 74 1077 84 1107.8 85.8C1138.7 87.7 1169.3 81.3 1184.7 78.2L1200 75L1200 151L1184.7 151C1169.3 151 1138.7 151 1107.8 151C1077 151 1046 151 1015.2 151C984.3 151 953.7 151 923 151C892.3 151 861.7 151 830.8 151C800 151 769 151 738.2 151C707.3 151 676.7 151 646 151C615.3 151 584.7 151 554 151C523.3 151 492.7 151 461.8 151C431 151 400 151 369.2 151C338.3 151 307.7 151 277 151C246.3 151 215.7 151 184.8 151C154 151 123 151 92.2 151C61.3 151 30.7 151 15.3 151L0 151Z" fill="#96a98a"></path><path d="M0 110L15.3 109.3C30.7 108.7 61.3 107.3 92.2 105.7C123 104 154 102 184.8 104.8C215.7 107.7 246.3 115.3 277 116.2C307.7 117 338.3 111 369.2 109C400 107 431 109 461.8 105.8C492.7 102.7 523.3 94.3 554 92.7C584.7 91 615.3 96 646 98.7C676.7 101.3 707.3 101.7 738.2 104.3C769 107 800 112 830.8 109.3C861.7 106.7 892.3 96.3 923 94.7C953.7 93 984.3 100 1015.2 104.2C1046 108.3 1077 109.7 1107.8 109.7C1138.7 109.7 1169.3 108.3 1184.7 107.7L1200 107L1200 151L1184.7 151C1169.3 151 1138.7 151 1107.8 151C1077 151 1046 151 1015.2 151C984.3 151 953.7 151 923 151C892.3 151 861.7 151 830.8 151C800 151 769 151 738.2 151C707.3 151 676.7 151 646 151C615.3 151 584.7 151 554 151C523.3 151 492.7 151 461.8 151C431 151 400 151 369.2 151C338.3 151 307.7 151 277 151C246.3 151 215.7 151 184.8 151C154 151 123 151 92.2 151C61.3 151 30.7 151 15.3 151L0 151Z" fill="#bdbf9f"></path><path d="M0 128L15.3 129.3C30.7 130.7 61.3 133.3 92.2 131.7C123 130 154 124 184.8 122.7C215.7 121.3 246.3 124.7 277 123.5C307.7 122.3 338.3 116.7 369.2 116.7C400 116.7 431 122.3 461.8 122.7C492.7 123 523.3 118 554 117.3C584.7 116.7 615.3 120.3 646 121.3C676.7 122.3 707.3 120.7 738.2 123.2C769 125.7 800 132.3 830.8 132C861.7 131.7 892.3 124.3 923 123.7C953.7 123 984.3 129 1015.2 127.8C1046 126.7 1077 118.3 1107.8 115C1138.7 111.7 1169.3 113.3 1184.7 114.2L1200 115L1200 151L1184.7 151C1169.3 151 1138.7 151 1107.8 151C1077 151 1046 151 1015.2 151C984.3 151 953.7 151 923 151C892.3 151 861.7 151 830.8 151C800 151 769 151 738.2 151C707.3 151 676.7 151 646 151C615.3 151 584.7 151 554 151C523.3 151 492.7 151 461.8 151C431 151 400 151 369.2 151C338.3 151 307.7 151 277 151C246.3 151 215.7 151 184.8 151C154 151 123 151 92.2 151C61.3 151 30.7 151 15.3 151L0 151Z" fill="#e2d6b9"></path></svg>