<svg id="visual" viewBox="0 0 1200 150" width="1200" height="150" xmlns="http://www.w3.org/2000/svg" xmlns:xlink="http://www.w3.org/1999/xlink" version="1.1"><rect x="0" y="0" width="1200" height="150" fill="#090C22"></rect><path d="M0 58L15.3 60.7C30.7 63.3 61.3 68.7 92.2 72.5C123 76.3 154 78.7 184.8 74.3C215.7 70 246.3 59 277 56.8C307.7 54.7 338.3 61.3 369.2 55.8C400 50.3 431 32.7 461.8 35.3C492.7 38 523.3 61 554 68.2C584.7 75.3 615.3 66.7 646 58.5C676.7 50.3 707.3 42.7 738.2 42.5C769 42.3 800 49.7 830.8 49.2C861.7 48.7 892.3 40.3 923 37C953.7 33.7 984.3 35.3 1015.2 33.8C1046 32.3 1077 27.7 1107.8 26.3C1138.7 25 1169.3 27 1184.7 28L1200 29L1200 151L1184.7 151C1169.3 151 1138.7 151 1107.8 151C1077 151 1046 151 1015.2 151C984.3 151 953.7 151 923 151C892.3 151 861.7 151 830.8 151C800 151 769 151 738.2 151C707.3 151 676.7 151 646 151C615.3 151 584.7 151 554 151C523.3 151 492.7 151 461.8 151C431 151 400 151 369.2 151C338.3 151 307.7 151 277 151C246.3 151 215.7 151 184.8 151C154 151 123 151 92.2 151C61.3 151 30.7 151 15.3 151L0 151Z" fill="#090c22"></path><path d="M0 44L15.3 49.8C30.7 55.7 61.3 67.3 92.2 74.2C123 81 154 83 184.8 85.3C215.7 87.7 246.3 90.3 277 92.3C307.7 94.3 338.3 95.7 369.2 93.2C400 90.7 431 84.3 461.8 83.7C492.7 83 523.3 88 554 89.5C584.7 91 615.3 89 646 83C676.7 77 707.3 67 738.2 64.5C769 62 800 67 830.8 71C861.7 75 892.3 78 923 77.8C953.7 77.7 984.3 74.3 1015.2 72.3C1046 70.3 1077 69.7 1107.8 65.8C1138.7 62 1169.3 55 1184.7 51.5L1200 48L1200 151L1184.7 151C1169.3 151 1138.7 151 1107.8 151C1077 151 1046 151 1015.2 151C984.3 151 953.7 151 923 151C892.3 151 861.7 151 830.8 151C800 151 769 151 738.2 151C707.3 151 676.7 151 646 151C615.3 151 584.7 151 554 151C523.3 151 492.7 151 461.8 151C431 151 400 151 369.2 151C338.3 151 307.7 151 277 151C246.3 151 215.7 151 184.8 151C154 151 123 151 92.2 151C61.3 151 30.7 151 15.3 151L0 151Z" fill="#311f45"></path><path d="M0 78L15.3 76.3C30.7 74.7 61.3 71.3 92.2 74.5C123 77.7 154 87.3 184.8 94.3C215.7 101.3 246.3 105.7 277 105C307.7 104.3 338.3 98.7 369.2 93.3C400 88 431 83 461.8 79.5C492.7 76 523.3 74 554 79.3C584.7 84.7 615.3 97.3 646 101.2C676.7 105 707.3 100 738.2 99.8C769 99.7 800 104.3 830.8 100.8C861.7 97.3 892.3 85.7 923 82C953.7 78.3 984.3 82.7 1015.2 83.7C1046 84.7 1077 82.3 1107.8 78.2C1138.7 74 1169.3 68 1184.7 65L1200 62L1200 151L1184.7 151C1169.3 151 1138.7 151 1107.8 151C1077 151 1046 151 1015.2 151C984.3 151 953.7 151 923 151C892.3 151 861.7 151 830.8 151C800 151 769 151 738.2 151C707.3 151 676.7 151 646 151C615.3 151 584.7 151 554 151C523.3 151 492.7 151 461.8 151C431 151 400 151 369.2 151C338.3 151 307.7 151 277 151C246.3 151 215.7 151 184.8 151C154 151 123 151 92.2 151C61.3 151 30.7 151 15.3 151L0 151Z" fill="#682a5f"></path><path d="M0 93L15.3 92C30.7 91 61.3 89 92.2 93.7C123 98.3 154 109.7 184.8 115.5C215.7 121.3 246.3 121.7 277 116.3C307.7 111 338.3 100 369.2 96.8C400 93.7 431 98.3 461.8 104C492.7 109.7 523.3 116.3 554 113.2C584.7 110 615.3 97 646 91.3C676.7 85.7 707.3 87.3 738.2 89.3C769 91.3 800 93.7 830.8 96.2C861.7 98.7 892.3 101.3 923 103.2C953.7 105 984.3 106 1015.2 102.7C1046 99.3 1077 91.7 1107.8 93.8C1138.7 96 1169.3 108 1184.7 114L1200 120L1200 151L1184.7 151C1169.3 151 1138.7 151 1107.8 151C1077 151 1046 151 1015.2 151C984.3 151 953.7 151 923 151C892.3 151 861.7 151 830.8 151C800 151 769 151 738.2 151C707.3 151 676.7 151 646 151C615.3 151 584.7 151 554 151C523.3 151 492.7 151 461.8 151C431 151 400 151 369.2 151C338.3 151 307.7 151 277 151C246.3 151 215.7 151 184.8 151C154 151 123 151 92.2 151C61.3 151 30.7 151 15.3 151L0 151Z" fill="#a53268"></path><path d="M0 111L15.3 110.3C30.7 109.7 61.3 108.3 92.2 112.3C123 116.3 154 125.7 184.8 131.2C215.7 136.7 246.3 138.3 277 137.7C307.7 137 338.3 134 369.2 132C400 130 431 129 461.8 126.5C492.7 124 523.3 120 554 117.3C584.7 114.7 615.3 113.3 646 112.7C676.7 112 707.3 112 738.2 112C769 112 800 112 830.8 112.3C861.7 112.7 892.3 113.3 923 116.7C953.7 120 984.3 126 1015.2 126C1046 126 1077 120 1107.8 118C1138.7 116 1169.3 118 1184.7 119L1200 120L1200 151L1184.7 151C1169.3 151 1138.7 151 1107.8 151C1077 151 1046 151 1015.2 151C984.3 151 953.7 151 923 151C892.3 151 861.7 151 830.8 151C800 151 769 151 738.2 151C707.3 151 676.7 151 646 151C615.3 151 584.7 151 554 151C523.3 151 492.7 151 461.8 151C431 151 400 151 369.2 151C338.3 151 307.7 151 277 151C246.3 151 215.7 151 184.8 151C154 151 123 151 92.2 151C61.3 151 30.7 151 15.3 151L0 151Z" fill="#dd4261"></path></svg>