<svg id="visual" viewBox="0 0 1200 150" width="1200" height="150" xmlns="http://www.w3.org/2000/svg" xmlns:xlink="http://www.w3.org/1999/xlink" version="1.1"><rect x="0" y="0" width="1200" height="150" fill="#090C22"></rect><path d="M0 51L15.3 46.2C30.7 41.3 61.3 31.7 92.2 34.2C123 36.7 154 51.3 184.8 55.5C215.7 59.7 246.3 53.3 277 53.5C307.7 53.7 338.3 60.3 369.2 61.5C400 62.7 431 58.3 461.8 61C492.7 63.7 523.3 73.3 554 77.2C584.7 81 615.3 79 646 67.8C676.7 56.7 707.3 36.3 738.2 36.2C769 36 800 56 830.8 60.3C861.7 64.7 892.3 53.3 923 51.7C953.7 50 984.3 58 1015.2 58.3C1046 58.7 1077 51.3 1107.8 48.5C1138.7 45.7 1169.3 47.3 1184.7 48.2L1200 49L1200 151L1184.7 151C1169.3 151 1138.7 151 1107.8 151C1077 151 1046 151 1015.2 151C984.3 151 953.7 151 923 151C892.3 151 861.7 151 830.8 151C800 151 769 151 738.2 151C707.3 151 676.7 151 646 151C615.3 151 584.7 151 554 151C523.3 151 492.7 151 461.8 151C431 151 400 151 369.2 151C338.3 151 307.7 151 277 151C246.3 151 215.7 151 184.8 151C154 151 123 151 92.2 151C61.3 151 30.7 151 15.3 151L0 151Z" fill="#090c22"></path><path d="M0 72L15.3 73.2C30.7 74.3 61.3 76.7 92.2 74.5C123 72.3 154 65.7 184.8 66.8C215.7 68 246.3 77 277 76C307.7 75 338.3 64 369.2 65.8C400 67.7 431 82.3 461.8 82.7C492.7 83 523.3 69 554 62.8C584.7 56.7 615.3 58.3 646 55.8C676.7 53.3 707.3 46.7 738.2 51.7C769 56.7 800 73.3 830.8 80.7C861.7 88 892.3 86 923 86C953.7 86 984.3 88 1015.2 89.7C1046 91.3 1077 92.7 1107.8 86.3C1138.7 80 1169.3 66 1184.7 59L1200 52L1200 151L1184.7 151C1169.3 151 1138.7 151 1107.8 151C1077 151 1046 151 1015.2 151C984.3 151 953.7 151 923 151C892.3 151 861.7 151 830.8 151C800 151 769 151 738.2 151C707.3 151 676.7 151 646 151C615.3 151 584.7 151 554 151C523.3 151 492.7 151 461.8 151C431 151 400 151 369.2 151C338.3 151 307.7 151 277 151C246.3 151 215.7 151 184.8 151C154 151 123 151 92.2 151C61.3 151 30.7 151 15.3 151L0 151Z" fill="#311f45"></path><path d="M0 88L15.3 87.7C30.7 87.3 61.3 86.7 92.2 84C123 81.3 154 76.7 184.8 81C215.7 85.3 246.3 98.7 277 101.3C307.7 104 338.3 96 369.2 90.8C400 85.7 431 83.3 461.8 85C492.7 86.7 523.3 92.3 554 91.8C584.7 91.3 615.3 84.7 646 83C676.7 81.3 707.3 84.7 738.2 84.8C769 85 800 82 830.8 79.3C861.7 76.7 892.3 74.3 923 78.3C953.7 82.3 984.3 92.7 1015.2 97.8C1046 103 1077 103 1107.8 100.3C1138.7 97.7 1169.3 92.3 1184.7 89.7L1200 87L1200 151L1184.7 151C1169.3 151 1138.7 151 1107.8 151C1077 151 1046 151 1015.2 151C984.3 151 953.7 151 923 151C892.3 151 861.7 151 830.8 151C800 151 769 151 738.2 151C707.3 151 676.7 151 646 151C615.3 151 584.7 151 554 151C523.3 151 492.7 151 461.8 151C431 151 400 151 369.2 151C338.3 151 307.7 151 277 151C246.3 151 215.7 151 184.8 151C154 151 123 151 92.2 151C61.3 151 30.7 151 15.3 151L0 151Z" fill="#682a5f"></path><path d="M0 90L15.3 93.3C30.7 96.7 61.3 103.3 92.2 105.5C123 107.7 154 105.3 184.8 101.8C215.7 98.3 246.3 93.7 277 97.2C307.7 100.7 338.3 112.3 369.2 114.7C400 117 431 110 461.8 106C492.7 102 523.3 101 554 104C584.7 107 615.3 114 646 115.8C676.7 117.7 707.3 114.3 738.2 114.5C769 114.7 800 118.3 830.8 114C861.7 109.7 892.3 97.3 923 93.3C953.7 89.3 984.3 93.7 1015.2 100.5C1046 107.3 1077 116.7 1107.8 118.3C1138.7 120 1169.3 114 1184.7 111L1200 108L1200 151L1184.7 151C1169.3 151 1138.7 151 1107.8 151C1077 151 1046 151 1015.2 151C984.3 151 953.7 151 923 151C892.3 151 861.7 151 830.8 151C800 151 769 151 738.2 151C707.3 151 676.7 151 646 151C615.3 151 584.7 151 554 151C523.3 151 492.7 151 461.8 151C431 151 400 151 369.2 151C338.3 151 307.7 151 277 151C246.3 151 215.7 151 184.8 151C154 151 123 151 92.2 151C61.3 151 30.7 151 15.3 151L0 151Z" fill="#a53268"></path><path d="M0 121L15.3 124C30.7 127 61.3 133 92.2 134.2C123 135.3 154 131.7 184.8 127C215.7 122.3 246.3 116.7 277 116.8C307.7 117 338.3 123 369.2 127.7C400 132.3 431 135.7 461.8 132.8C492.7 130 523.3 121 554 118.2C584.7 115.3 615.3 118.7 646 117.8C676.7 117 707.3 112 738.2 113.7C769 115.3 800 123.7 830.8 128.8C861.7 134 892.3 136 923 132.7C953.7 129.3 984.3 120.7 1015.2 116.5C1046 112.3 1077 112.7 1107.8 116.8C1138.7 121 1169.3 129 1184.7 133L1200 137L1200 151L1184.7 151C1169.3 151 1138.7 151 1107.8 151C1077 151 1046 151 1015.2 151C984.3 151 953.7 151 923 151C892.3 151 861.7 151 830.8 151C800 151 769 151 738.2 151C707.3 151 676.7 151 646 151C615.3 151 584.7 151 554 151C523.3 151 492.7 151 461.8 151C431 151 400 151 369.2 151C338.3 151 307.7 151 277 151C246.3 151 215.7 151 184.8 151C154 151 123 151 92.2 151C61.3 151 30.7 151 15.3 151L0 151Z" fill="#dd4261"></path></svg>