<svg id="visual" viewBox="0 0 1200 150" width="1200" height="150" xmlns="http://www.w3.org/2000/svg" xmlns:xlink="http://www.w3.org/1999/xlink" version="1.1"><rect x="0" y="0" width="1200" height="150" fill="#DD4261"></rect><path d="M0 77L15.3 73.5C30.7 70 61.3 63 92.2 60.7C123 58.3 154 60.7 184.8 56.2C215.7 51.7 246.3 40.3 277 42.5C307.7 44.7 338.3 60.3 369.2 59.8C400 59.3 431 42.7 461.8 42C492.7 41.3 523.3 56.7 554 64.3C584.7 72 615.3 72 646 73.8C676.7 75.7 707.3 79.3 738.2 73.3C769 67.3 800 51.7 830.8 46.8C861.7 42 892.3 48 923 46.3C953.7 44.7 984.3 35.3 1015.2 37.8C1046 40.3 1077 54.7 1107.8 61.2C1138.7 67.7 1169.3 66.3 1184.7 65.7L1200 65L1200 151L1184.7 151C1169.3 151 1138.7 151 1107.8 151C1077 151 1046 151 1015.2 151C984.3 151 953.7 151 923 151C892.3 151 861.7 151 830.8 151C800 151 769 151 738.2 151C707.3 151 676.7 151 646 151C615.3 151 584.7 151 554 151C523.3 151 492.7 151 461.8 151C431 151 400 151 369.2 151C338.3 151 307.7 151 277 151C246.3 151 215.7 151 184.8 151C154 151 123 151 92.2 151C61.3 151 30.7 151 15.3 151L0 151Z" fill="#dd4261"></path><path d="M0 54L15.3 53.5C30.7 53 61.3 52 92.2 53.2C123 54.3 154 57.7 184.8 59C215.7 60.3 246.3 59.7 277 61.5C307.7 63.3 338.3 67.7 369.2 66C400 64.3 431 56.7 461.8 54.2C492.7 51.7 523.3 54.3 554 60.3C584.7 66.3 615.3 75.7 646 77.8C676.7 80 707.3 75 738.2 74C769 73 800 76 830.8 78.5C861.7 81 892.3 83 923 77C953.7 71 984.3 57 1015.2 55.7C1046 54.3 1077 65.7 1107.8 71.2C1138.7 76.7 1169.3 76.3 1184.7 76.2L1200 76L1200 151L1184.7 151C1169.3 151 1138.7 151 1107.8 151C1077 151 1046 151 1015.2 151C984.3 151 953.7 151 923 151C892.3 151 861.7 151 830.8 151C800 151 769 151 738.2 151C707.3 151 676.7 151 646 151C615.3 151 584.7 151 554 151C523.3 151 492.7 151 461.8 151C431 151 400 151 369.2 151C338.3 151 307.7 151 277 151C246.3 151 215.7 151 184.8 151C154 151 123 151 92.2 151C61.3 151 30.7 151 15.3 151L0 151Z" fill="#a53268"></path><path d="M0 69L15.3 71.7C30.7 74.3 61.3 79.7 92.2 81.5C123 83.3 154 81.7 184.8 80.3C215.7 79 246.3 78 277 80.3C307.7 82.7 338.3 88.3 369.2 91C400 93.7 431 93.3 461.8 93.2C492.7 93 523.3 93 554 89.3C584.7 85.7 615.3 78.3 646 81.5C676.7 84.7 707.3 98.3 738.2 100.7C769 103 800 94 830.8 92.3C861.7 90.7 892.3 96.3 923 95C953.7 93.7 984.3 85.3 1015.2 86.2C1046 87 1077 97 1107.8 100.3C1138.7 103.7 1169.3 100.3 1184.7 98.7L1200 97L1200 151L1184.7 151C1169.3 151 1138.7 151 1107.8 151C1077 151 1046 151 1015.2 151C984.3 151 953.7 151 923 151C892.3 151 861.7 151 830.8 151C800 151 769 151 738.2 151C707.3 151 676.7 151 646 151C615.3 151 584.7 151 554 151C523.3 151 492.7 151 461.8 151C431 151 400 151 369.2 151C338.3 151 307.7 151 277 151C246.3 151 215.7 151 184.8 151C154 151 123 151 92.2 151C61.3 151 30.7 151 15.3 151L0 151Z" fill="#682a5f"></path><path d="M0 107L15.3 103.5C30.7 100 61.3 93 92.2 91.8C123 90.7 154 95.3 184.8 96.7C215.7 98 246.3 96 277 100C307.7 104 338.3 114 369.2 115.3C400 116.7 431 109.3 461.8 106.7C492.7 104 523.3 106 554 105.7C584.7 105.3 615.3 102.7 646 102.8C676.7 103 707.3 106 738.2 109.7C769 113.3 800 117.7 830.8 114C861.7 110.3 892.3 98.7 923 97.3C953.7 96 984.3 105 1015.2 110.7C1046 116.3 1077 118.7 1107.8 113.8C1138.7 109 1169.3 97 1184.7 91L1200 85L1200 151L1184.7 151C1169.3 151 1138.7 151 1107.8 151C1077 151 1046 151 1015.2 151C984.3 151 953.7 151 923 151C892.3 151 861.7 151 830.8 151C800 151 769 151 738.2 151C707.3 151 676.7 151 646 151C615.3 151 584.7 151 554 151C523.3 151 492.7 151 461.8 151C431 151 400 151 369.2 151C338.3 151 307.7 151 277 151C246.3 151 215.7 151 184.8 151C154 151 123 151 92.2 151C61.3 151 30.7 151 15.3 151L0 151Z" fill="#311f45"></path><path d="M0 122L15.3 122.5C30.7 123 61.3 124 92.2 125.3C123 126.7 154 128.3 184.8 130.2C215.7 132 246.3 134 277 133.5C307.7 133 338.3 130 369.2 125.7C400 121.3 431 115.7 461.8 117C492.7 118.3 523.3 126.7 554 128.7C584.7 130.7 615.3 126.3 646 124.8C676.7 123.3 707.3 124.7 738.2 125.2C769 125.7 800 125.3 830.8 124.2C861.7 123 892.3 121 923 120.7C953.7 120.3 984.3 121.7 1015.2 120.8C1046 120 1077 117 1107.8 115.8C1138.7 114.7 1169.3 115.3 1184.7 115.7L1200 116L1200 151L1184.7 151C1169.3 151 1138.7 151 1107.8 151C1077 151 1046 151 1015.2 151C984.3 151 953.7 151 923 151C892.3 151 861.7 151 830.8 151C800 151 769 151 738.2 151C707.3 151 676.7 151 646 151C615.3 151 584.7 151 554 151C523.3 151 492.7 151 461.8 151C431 151 400 151 369.2 151C338.3 151 307.7 151 277 151C246.3 151 215.7 151 184.8 151C154 151 123 151 92.2 151C61.3 151 30.7 151 15.3 151L0 151Z" fill="#090c22"></path></svg>