<svg id="visual" viewBox="0 0 1200 150" width="1200" height="150" xmlns="http://www.w3.org/2000/svg" xmlns:xlink="http://www.w3.org/1999/xlink" version="1.1"><rect x="0" y="0" width="1200" height="150" fill="#DD4261"></rect><path d="M0 21L15.3 25.2C30.7 29.3 61.3 37.7 92.2 45.7C123 53.7 154 61.3 184.8 56.5C215.7 51.7 246.3 34.3 277 31.3C307.7 28.3 338.3 39.7 369.2 42.3C400 45 431 39 461.8 37C492.7 35 523.3 37 554 34.5C584.7 32 615.3 25 646 22.5C676.7 20 707.3 22 738.2 32.3C769 42.7 800 61.3 830.8 63.3C861.7 65.3 892.3 50.7 923 45.3C953.7 40 984.3 44 1015.2 44.3C1046 44.7 1077 41.3 1107.8 39.5C1138.7 37.7 1169.3 37.3 1184.7 37.2L1200 37L1200 151L1184.7 151C1169.3 151 1138.7 151 1107.8 151C1077 151 1046 151 1015.2 151C984.3 151 953.7 151 923 151C892.3 151 861.7 151 830.8 151C800 151 769 151 738.2 151C707.3 151 676.7 151 646 151C615.3 151 584.7 151 554 151C523.3 151 492.7 151 461.8 151C431 151 400 151 369.2 151C338.3 151 307.7 151 277 151C246.3 151 215.7 151 184.8 151C154 151 123 151 92.2 151C61.3 151 30.7 151 15.3 151L0 151Z" fill="#dd4261"></path><path d="M0 89L15.3 90.3C30.7 91.7 61.3 94.3 92.2 91.2C123 88 154 79 184.8 77C215.7 75 246.3 80 277 76.7C307.7 73.3 338.3 61.7 369.2 55.5C400 49.3 431 48.7 461.8 48.2C492.7 47.7 523.3 47.3 554 55.2C584.7 63 615.3 79 646 87.5C676.7 96 707.3 97 738.2 89C769 81 800 64 830.8 61.3C861.7 58.7 892.3 70.3 923 78.5C953.7 86.7 984.3 91.3 1015.2 86.7C1046 82 1077 68 1107.8 61.7C1138.7 55.3 1169.3 56.7 1184.7 57.3L1200 58L1200 151L1184.7 151C1169.3 151 1138.7 151 1107.8 151C1077 151 1046 151 1015.2 151C984.3 151 953.7 151 923 151C892.3 151 861.7 151 830.8 151C800 151 769 151 738.2 151C707.3 151 676.7 151 646 151C615.3 151 584.7 151 554 151C523.3 151 492.7 151 461.8 151C431 151 400 151 369.2 151C338.3 151 307.7 151 277 151C246.3 151 215.7 151 184.8 151C154 151 123 151 92.2 151C61.3 151 30.7 151 15.3 151L0 151Z" fill="#a53268"></path><path d="M0 89L15.3 88.7C30.7 88.3 61.3 87.7 92.2 86.8C123 86 154 85 184.8 84.7C215.7 84.3 246.3 84.7 277 89.2C307.7 93.7 338.3 102.3 369.2 101.7C400 101 431 91 461.8 83.5C492.7 76 523.3 71 554 68.7C584.7 66.3 615.3 66.7 646 68C676.7 69.3 707.3 71.7 738.2 70.7C769 69.7 800 65.3 830.8 70.3C861.7 75.3 892.3 89.7 923 89.8C953.7 90 984.3 76 1015.2 69.5C1046 63 1077 64 1107.8 67.8C1138.7 71.7 1169.3 78.3 1184.7 81.7L1200 85L1200 151L1184.7 151C1169.3 151 1138.7 151 1107.8 151C1077 151 1046 151 1015.2 151C984.3 151 953.7 151 923 151C892.3 151 861.7 151 830.8 151C800 151 769 151 738.2 151C707.3 151 676.7 151 646 151C615.3 151 584.7 151 554 151C523.3 151 492.7 151 461.8 151C431 151 400 151 369.2 151C338.3 151 307.7 151 277 151C246.3 151 215.7 151 184.8 151C154 151 123 151 92.2 151C61.3 151 30.7 151 15.3 151L0 151Z" fill="#682a5f"></path><path d="M0 122L15.3 116.3C30.7 110.7 61.3 99.3 92.2 99.8C123 100.3 154 112.7 184.8 113.3C215.7 114 246.3 103 277 98.8C307.7 94.7 338.3 97.3 369.2 98.5C400 99.7 431 99.3 461.8 96.7C492.7 94 523.3 89 554 88C584.7 87 615.3 90 646 93.2C676.7 96.3 707.3 99.7 738.2 99.8C769 100 800 97 830.8 97C861.7 97 892.3 100 923 100.2C953.7 100.3 984.3 97.7 1015.2 100C1046 102.3 1077 109.7 1107.8 113.2C1138.7 116.7 1169.3 116.3 1184.7 116.2L1200 116L1200 151L1184.7 151C1169.3 151 1138.7 151 1107.8 151C1077 151 1046 151 1015.2 151C984.3 151 953.7 151 923 151C892.3 151 861.7 151 830.8 151C800 151 769 151 738.2 151C707.3 151 676.7 151 646 151C615.3 151 584.7 151 554 151C523.3 151 492.7 151 461.8 151C431 151 400 151 369.2 151C338.3 151 307.7 151 277 151C246.3 151 215.7 151 184.8 151C154 151 123 151 92.2 151C61.3 151 30.7 151 15.3 151L0 151Z" fill="#311f45"></path><path d="M0 139L15.3 138.2C30.7 137.3 61.3 135.7 92.2 131.2C123 126.7 154 119.3 184.8 119.8C215.7 120.3 246.3 128.7 277 130.3C307.7 132 338.3 127 369.2 126.7C400 126.3 431 130.7 461.8 130.7C492.7 130.7 523.3 126.3 554 126.8C584.7 127.3 615.3 132.7 646 134C676.7 135.3 707.3 132.7 738.2 129.7C769 126.7 800 123.3 830.8 124.8C861.7 126.3 892.3 132.7 923 133.7C953.7 134.7 984.3 130.3 1015.2 130.2C1046 130 1077 134 1107.8 134.3C1138.7 134.7 1169.3 131.3 1184.7 129.7L1200 128L1200 151L1184.7 151C1169.3 151 1138.7 151 1107.8 151C1077 151 1046 151 1015.2 151C984.3 151 953.7 151 923 151C892.3 151 861.7 151 830.8 151C800 151 769 151 738.2 151C707.3 151 676.7 151 646 151C615.3 151 584.7 151 554 151C523.3 151 492.7 151 461.8 151C431 151 400 151 369.2 151C338.3 151 307.7 151 277 151C246.3 151 215.7 151 184.8 151C154 151 123 151 92.2 151C61.3 151 30.7 151 15.3 151L0 151Z" fill="#090c22"></path></svg>