<svg id="visual" viewBox="0 0 1200 150" width="1200" height="150" xmlns="http://www.w3.org/2000/svg" xmlns:xlink="http://www.w3.org/1999/xlink" version="1.1"><rect x="0" y="0" width="1200" height="150" fill="#E2D6B9"></rect><path d="M0 62L15.3 57.5C30.7 53 61.3 44 92.2 40C123 36 154 37 184.8 36C215.7 35 246.3 32 277 32.7C307.7 33.3 338.3 37.7 369.2 45.3C400 53 431 64 461.8 68.7C492.7 73.3 523.3 71.7 554 64.7C584.7 57.7 615.3 45.3 646 45.8C676.7 46.3 707.3 59.7 738.2 63.3C769 67 800 61 830.8 61.7C861.7 62.3 892.3 69.7 923 67.3C953.7 65 984.3 53 1015.2 49.5C1046 46 1077 51 1107.8 53.5C1138.7 56 1169.3 56 1184.7 56L1200 56L1200 151L1184.7 151C1169.3 151 1138.7 151 1107.8 151C1077 151 1046 151 1015.2 151C984.3 151 953.7 151 923 151C892.3 151 861.7 151 830.8 151C800 151 769 151 738.2 151C707.3 151 676.7 151 646 151C615.3 151 584.7 151 554 151C523.3 151 492.7 151 461.8 151C431 151 400 151 369.2 151C338.3 151 307.7 151 277 151C246.3 151 215.7 151 184.8 151C154 151 123 151 92.2 151C61.3 151 30.7 151 15.3 151L0 151Z" fill="#4a7c6d"></path><path d="M0 73L15.3 68.3C30.7 63.7 61.3 54.3 92.2 54.7C123 55 154 65 184.8 70.3C215.7 75.7 246.3 76.3 277 78C307.7 79.7 338.3 82.3 369.2 85C400 87.7 431 90.3 461.8 87C492.7 83.7 523.3 74.3 554 68C584.7 61.7 615.3 58.3 646 60.5C676.7 62.7 707.3 70.3 738.2 72C769 73.7 800 69.3 830.8 63.8C861.7 58.3 892.3 51.7 923 56C953.7 60.3 984.3 75.7 1015.2 83.2C1046 90.7 1077 90.3 1107.8 82.5C1138.7 74.7 1169.3 59.3 1184.7 51.7L1200 44L1200 151L1184.7 151C1169.3 151 1138.7 151 1107.8 151C1077 151 1046 151 1015.2 151C984.3 151 953.7 151 923 151C892.3 151 861.7 151 830.8 151C800 151 769 151 738.2 151C707.3 151 676.7 151 646 151C615.3 151 584.7 151 554 151C523.3 151 492.7 151 461.8 151C431 151 400 151 369.2 151C338.3 151 307.7 151 277 151C246.3 151 215.7 151 184.8 151C154 151 123 151 92.2 151C61.3 151 30.7 151 15.3 151L0 151Z" fill="#266062"></path><path d="M0 84L15.3 85.5C30.7 87 61.3 90 92.2 93.2C123 96.3 154 99.7 184.8 98.5C215.7 97.3 246.3 91.7 277 86.2C307.7 80.7 338.3 75.3 369.2 78.5C400 81.7 431 93.3 461.8 97.5C492.7 101.7 523.3 98.3 554 97.7C584.7 97 615.3 99 646 101C676.7 103 707.3 105 738.2 98.3C769 91.7 800 76.3 830.8 71.2C861.7 66 892.3 71 923 77.3C953.7 83.7 984.3 91.3 1015.2 90C1046 88.7 1077 78.3 1107.8 76.8C1138.7 75.3 1169.3 82.7 1184.7 86.3L1200 90L1200 151L1184.7 151C1169.3 151 1138.7 151 1107.8 151C1077 151 1046 151 1015.2 151C984.3 151 953.7 151 923 151C892.3 151 861.7 151 830.8 151C800 151 769 151 738.2 151C707.3 151 676.7 151 646 151C615.3 151 584.7 151 554 151C523.3 151 492.7 151 461.8 151C431 151 400 151 369.2 151C338.3 151 307.7 151 277 151C246.3 151 215.7 151 184.8 151C154 151 123 151 92.2 151C61.3 151 30.7 151 15.3 151L0 151Z" fill="#0c4452"></path><path d="M0 119L15.3 115.3C30.7 111.7 61.3 104.3 92.2 101.5C123 98.7 154 100.3 184.8 104.5C215.7 108.7 246.3 115.3 277 119.2C307.7 123 338.3 124 369.2 119.3C400 114.7 431 104.3 461.8 98.8C492.7 93.3 523.3 92.7 554 91.7C584.7 90.7 615.3 89.3 646 94.7C676.7 100 707.3 112 738.2 113.3C769 114.7 800 105.3 830.8 105.7C861.7 106 892.3 116 923 114.3C953.7 112.7 984.3 99.3 1015.2 95.8C1046 92.3 1077 98.7 1107.8 101.8C1138.7 105 1169.3 105 1184.7 105L1200 105L1200 151L1184.7 151C1169.3 151 1138.7 151 1107.8 151C1077 151 1046 151 1015.2 151C984.3 151 953.7 151 923 151C892.3 151 861.7 151 830.8 151C800 151 769 151 738.2 151C707.3 151 676.7 151 646 151C615.3 151 584.7 151 554 151C523.3 151 492.7 151 461.8 151C431 151 400 151 369.2 151C338.3 151 307.7 151 277 151C246.3 151 215.7 151 184.8 151C154 151 123 151 92.2 151C61.3 151 30.7 151 15.3 151L0 151Z" fill="#08283c"></path><path d="M0 135L15.3 131.5C30.7 128 61.3 121 92.2 118.8C123 116.7 154 119.3 184.8 123.8C215.7 128.3 246.3 134.7 277 133.3C307.7 132 338.3 123 369.2 117.8C400 112.7 431 111.3 461.8 110.8C492.7 110.3 523.3 110.7 554 114.3C584.7 118 615.3 125 646 124.5C676.7 124 707.3 116 738.2 115.7C769 115.3 800 122.7 830.8 126.2C861.7 129.7 892.3 129.3 923 126.7C953.7 124 984.3 119 1015.2 118.5C1046 118 1077 122 1107.8 122.3C1138.7 122.7 1169.3 119.3 1184.7 117.7L1200 116L1200 151L1184.7 151C1169.3 151 1138.7 151 1107.8 151C1077 151 1046 151 1015.2 151C984.3 151 953.7 151 923 151C892.3 151 861.7 151 830.8 151C800 151 769 151 738.2 151C707.3 151 676.7 151 646 151C615.3 151 584.7 151 554 151C523.3 151 492.7 151 461.8 151C431 151 400 151 369.2 151C338.3 151 307.7 151 277 151C246.3 151 215.7 151 184.8 151C154 151 123 151 92.2 151C61.3 151 30.7 151 15.3 151L0 151Z" fill="#090c22"></path></svg>