<svg id="visual" viewBox="0 0 1200 150" width="1200" height="150" xmlns="http://www.w3.org/2000/svg" xmlns:xlink="http://www.w3.org/1999/xlink" version="1.1"><rect x="0" y="0" width="1200" height="150" fill="#E2D6B9"></rect><path d="M0 62L15.3 57.2C30.7 52.3 61.3 42.7 92.2 37.3C123 32 154 31 184.8 34.5C215.7 38 246.3 46 277 51.3C307.7 56.7 338.3 59.3 369.2 60.5C400 61.7 431 61.3 461.8 57.3C492.7 53.3 523.3 45.7 554 44.5C584.7 43.3 615.3 48.7 646 49.3C676.7 50 707.3 46 738.2 45.8C769 45.7 800 49.3 830.8 50C861.7 50.7 892.3 48.3 923 53.3C953.7 58.3 984.3 70.7 1015.2 74C1046 77.3 1077 71.7 1107.8 71.5C1138.7 71.3 1169.3 76.7 1184.7 79.3L1200 82L1200 151L1184.7 151C1169.3 151 1138.7 151 1107.8 151C1077 151 1046 151 1015.2 151C984.3 151 953.7 151 923 151C892.3 151 861.7 151 830.8 151C800 151 769 151 738.2 151C707.3 151 676.7 151 646 151C615.3 151 584.7 151 554 151C523.3 151 492.7 151 461.8 151C431 151 400 151 369.2 151C338.3 151 307.7 151 277 151C246.3 151 215.7 151 184.8 151C154 151 123 151 92.2 151C61.3 151 30.7 151 15.3 151L0 151Z" fill="#4a7c6d"></path><path d="M0 58L15.3 56.3C30.7 54.7 61.3 51.3 92.2 55.2C123 59 154 70 184.8 72.5C215.7 75 246.3 69 277 64.2C307.7 59.3 338.3 55.7 369.2 61C400 66.3 431 80.7 461.8 85.3C492.7 90 523.3 85 554 83.5C584.7 82 615.3 84 646 85C676.7 86 707.3 86 738.2 79C769 72 800 58 830.8 54.5C861.7 51 892.3 58 923 60.3C953.7 62.7 984.3 60.3 1015.2 60.2C1046 60 1077 62 1107.8 60.5C1138.7 59 1169.3 54 1184.7 51.5L1200 49L1200 151L1184.7 151C1169.3 151 1138.7 151 1107.8 151C1077 151 1046 151 1015.2 151C984.3 151 953.7 151 923 151C892.3 151 861.7 151 830.8 151C800 151 769 151 738.2 151C707.3 151 676.7 151 646 151C615.3 151 584.7 151 554 151C523.3 151 492.7 151 461.8 151C431 151 400 151 369.2 151C338.3 151 307.7 151 277 151C246.3 151 215.7 151 184.8 151C154 151 123 151 92.2 151C61.3 151 30.7 151 15.3 151L0 151Z" fill="#266062"></path><path d="M0 107L15.3 99.7C30.7 92.3 61.3 77.7 92.2 71.8C123 66 154 69 184.8 70.7C215.7 72.3 246.3 72.7 277 71.7C307.7 70.7 338.3 68.3 369.2 67.2C400 66 431 66 461.8 69.3C492.7 72.7 523.3 79.3 554 81.5C584.7 83.7 615.3 81.3 646 80.5C676.7 79.7 707.3 80.3 738.2 82.2C769 84 800 87 830.8 87C861.7 87 892.3 84 923 85.8C953.7 87.7 984.3 94.3 1015.2 98.5C1046 102.7 1077 104.3 1107.8 100.7C1138.7 97 1169.3 88 1184.7 83.5L1200 79L1200 151L1184.7 151C1169.3 151 1138.7 151 1107.8 151C1077 151 1046 151 1015.2 151C984.3 151 953.7 151 923 151C892.3 151 861.7 151 830.8 151C800 151 769 151 738.2 151C707.3 151 676.7 151 646 151C615.3 151 584.7 151 554 151C523.3 151 492.7 151 461.8 151C431 151 400 151 369.2 151C338.3 151 307.7 151 277 151C246.3 151 215.7 151 184.8 151C154 151 123 151 92.2 151C61.3 151 30.7 151 15.3 151L0 151Z" fill="#0c4452"></path><path d="M0 99L15.3 102.2C30.7 105.3 61.3 111.7 92.2 115C123 118.3 154 118.7 184.8 119.2C215.7 119.7 246.3 120.3 277 117.3C307.7 114.3 338.3 107.7 369.2 103.2C400 98.7 431 96.3 461.8 97.8C492.7 99.3 523.3 104.7 554 103.7C584.7 102.7 615.3 95.3 646 94.3C676.7 93.3 707.3 98.7 738.2 104.3C769 110 800 116 830.8 114.2C861.7 112.3 892.3 102.7 923 101.2C953.7 99.7 984.3 106.3 1015.2 110.3C1046 114.3 1077 115.7 1107.8 117.8C1138.7 120 1169.3 123 1184.7 124.5L1200 126L1200 151L1184.7 151C1169.3 151 1138.7 151 1107.8 151C1077 151 1046 151 1015.2 151C984.3 151 953.7 151 923 151C892.3 151 861.7 151 830.8 151C800 151 769 151 738.2 151C707.3 151 676.7 151 646 151C615.3 151 584.7 151 554 151C523.3 151 492.7 151 461.8 151C431 151 400 151 369.2 151C338.3 151 307.7 151 277 151C246.3 151 215.7 151 184.8 151C154 151 123 151 92.2 151C61.3 151 30.7 151 15.3 151L0 151Z" fill="#08283c"></path><path d="M0 109L15.3 111.5C30.7 114 61.3 119 92.2 124.2C123 129.3 154 134.7 184.8 137.2C215.7 139.7 246.3 139.3 277 134C307.7 128.7 338.3 118.3 369.2 118C400 117.7 431 127.3 461.8 129.8C492.7 132.3 523.3 127.7 554 123C584.7 118.3 615.3 113.7 646 111.3C676.7 109 707.3 109 738.2 110C769 111 800 113 830.8 114.5C861.7 116 892.3 117 923 121.3C953.7 125.7 984.3 133.3 1015.2 135.2C1046 137 1077 133 1107.8 131.2C1138.7 129.3 1169.3 129.7 1184.7 129.8L1200 130L1200 151L1184.7 151C1169.3 151 1138.7 151 1107.8 151C1077 151 1046 151 1015.2 151C984.3 151 953.7 151 923 151C892.3 151 861.7 151 830.8 151C800 151 769 151 738.2 151C707.3 151 676.7 151 646 151C615.3 151 584.7 151 554 151C523.3 151 492.7 151 461.8 151C431 151 400 151 369.2 151C338.3 151 307.7 151 277 151C246.3 151 215.7 151 184.8 151C154 151 123 151 92.2 151C61.3 151 30.7 151 15.3 151L0 151Z" fill="#090c22"></path></svg>