<svg id="visual" viewBox="0 0 1200 150" width="1200" height="150" xmlns="http://www.w3.org/2000/svg" xmlns:xlink="http://www.w3.org/1999/xlink" version="1.1"><rect x="0" y="0" width="1200" height="150" fill="#E2D6B9"></rect><path d="M0 68L15.3 59.3C30.7 50.7 61.3 33.3 92.2 35.3C123 37.3 154 58.7 184.8 60.3C215.7 62 246.3 44 277 42.8C307.7 41.7 338.3 57.3 369.2 64C400 70.7 431 68.3 461.8 68.3C492.7 68.3 523.3 70.7 554 68C584.7 65.3 615.3 57.7 646 54.3C676.7 51 707.3 52 738.2 52.2C769 52.3 800 51.7 830.8 55.2C861.7 58.7 892.3 66.3 923 71.7C953.7 77 984.3 80 1015.2 72.3C1046 64.7 1077 46.3 1107.8 44.2C1138.7 42 1169.3 56 1184.7 63L1200 70L1200 151L1184.7 151C1169.3 151 1138.7 151 1107.8 151C1077 151 1046 151 1015.2 151C984.3 151 953.7 151 923 151C892.3 151 861.7 151 830.8 151C800 151 769 151 738.2 151C707.3 151 676.7 151 646 151C615.3 151 584.7 151 554 151C523.3 151 492.7 151 461.8 151C431 151 400 151 369.2 151C338.3 151 307.7 151 277 151C246.3 151 215.7 151 184.8 151C154 151 123 151 92.2 151C61.3 151 30.7 151 15.3 151L0 151Z" fill="#4a7c6d"></path><path d="M0 79L15.3 75.8C30.7 72.7 61.3 66.3 92.2 62C123 57.7 154 55.3 184.8 59.8C215.7 64.3 246.3 75.7 277 77.5C307.7 79.3 338.3 71.7 369.2 73.5C400 75.3 431 86.7 461.8 84.7C492.7 82.7 523.3 67.3 554 62.7C584.7 58 615.3 64 646 68.3C676.7 72.7 707.3 75.3 738.2 75C769 74.7 800 71.3 830.8 71C861.7 70.7 892.3 73.3 923 70.8C953.7 68.3 984.3 60.7 1015.2 54.7C1046 48.7 1077 44.3 1107.8 46.2C1138.7 48 1169.3 56 1184.7 60L1200 64L1200 151L1184.7 151C1169.3 151 1138.7 151 1107.8 151C1077 151 1046 151 1015.2 151C984.3 151 953.7 151 923 151C892.3 151 861.7 151 830.8 151C800 151 769 151 738.2 151C707.3 151 676.7 151 646 151C615.3 151 584.7 151 554 151C523.3 151 492.7 151 461.8 151C431 151 400 151 369.2 151C338.3 151 307.7 151 277 151C246.3 151 215.7 151 184.8 151C154 151 123 151 92.2 151C61.3 151 30.7 151 15.3 151L0 151Z" fill="#266062"></path><path d="M0 69L15.3 76C30.7 83 61.3 97 92.2 103.3C123 109.7 154 108.3 184.8 101.5C215.7 94.7 246.3 82.3 277 76.2C307.7 70 338.3 70 369.2 72C400 74 431 78 461.8 77.3C492.7 76.7 523.3 71.3 554 73.7C584.7 76 615.3 86 646 90.3C676.7 94.7 707.3 93.3 738.2 92C769 90.7 800 89.3 830.8 84.8C861.7 80.3 892.3 72.7 923 73.3C953.7 74 984.3 83 1015.2 86.7C1046 90.3 1077 88.7 1107.8 92C1138.7 95.3 1169.3 103.7 1184.7 107.8L1200 112L1200 151L1184.7 151C1169.3 151 1138.7 151 1107.8 151C1077 151 1046 151 1015.2 151C984.3 151 953.7 151 923 151C892.3 151 861.7 151 830.8 151C800 151 769 151 738.2 151C707.3 151 676.7 151 646 151C615.3 151 584.7 151 554 151C523.3 151 492.7 151 461.8 151C431 151 400 151 369.2 151C338.3 151 307.7 151 277 151C246.3 151 215.7 151 184.8 151C154 151 123 151 92.2 151C61.3 151 30.7 151 15.3 151L0 151Z" fill="#0c4452"></path><path d="M0 110L15.3 106.8C30.7 103.7 61.3 97.3 92.2 97.5C123 97.7 154 104.3 184.8 109.7C215.7 115 246.3 119 277 117C307.7 115 338.3 107 369.2 102.5C400 98 431 97 461.8 96C492.7 95 523.3 94 554 93.8C584.7 93.7 615.3 94.3 646 99C676.7 103.7 707.3 112.3 738.2 117.3C769 122.3 800 123.7 830.8 120.8C861.7 118 892.3 111 923 110C953.7 109 984.3 114 1015.2 111C1046 108 1077 97 1107.8 96.7C1138.7 96.3 1169.3 106.7 1184.7 111.8L1200 117L1200 151L1184.7 151C1169.3 151 1138.7 151 1107.8 151C1077 151 1046 151 1015.2 151C984.3 151 953.7 151 923 151C892.3 151 861.7 151 830.8 151C800 151 769 151 738.2 151C707.3 151 676.7 151 646 151C615.3 151 584.7 151 554 151C523.3 151 492.7 151 461.8 151C431 151 400 151 369.2 151C338.3 151 307.7 151 277 151C246.3 151 215.7 151 184.8 151C154 151 123 151 92.2 151C61.3 151 30.7 151 15.3 151L0 151Z" fill="#08283c"></path><path d="M0 115L15.3 115.5C30.7 116 61.3 117 92.2 118.8C123 120.7 154 123.3 184.8 124.5C215.7 125.7 246.3 125.3 277 123.5C307.7 121.7 338.3 118.3 369.2 117.5C400 116.7 431 118.3 461.8 122.7C492.7 127 523.3 134 554 134.2C584.7 134.3 615.3 127.7 646 126.8C676.7 126 707.3 131 738.2 133C769 135 800 134 830.8 132.5C861.7 131 892.3 129 923 126.3C953.7 123.7 984.3 120.3 1015.2 121C1046 121.7 1077 126.3 1107.8 128.7C1138.7 131 1169.3 131 1184.7 131L1200 131L1200 151L1184.7 151C1169.3 151 1138.7 151 1107.8 151C1077 151 1046 151 1015.2 151C984.3 151 953.7 151 923 151C892.3 151 861.7 151 830.8 151C800 151 769 151 738.2 151C707.3 151 676.7 151 646 151C615.3 151 584.7 151 554 151C523.3 151 492.7 151 461.8 151C431 151 400 151 369.2 151C338.3 151 307.7 151 277 151C246.3 151 215.7 151 184.8 151C154 151 123 151 92.2 151C61.3 151 30.7 151 15.3 151L0 151Z" fill="#090c22"></path></svg>